<svg xmlns="http://www.w3.org/2000/svg" viewBox="0 0 24 24" fill="#ffffff">
  <path d="M19 7h-3V6c0-2.21-1.79-4-4-4S8 3.79 8 6v1H5c-1.1 0-2 .9-2 2v11c0 1.1.9 2 2 2h14c1.1 0 2-.9 2-2V9c0-1.1-.9-2-2-2zm-7-3c1.1 0 2 .9 2 2v1h-4V6c0-1.1.9-2 2-2zm2.5 13.25c-.24.51-.71.85-1.25.95v.8c0 .28-.22.5-.5.5s-.5-.22-.5-.5v-.8c-.76-.14-1.39-.62-1.63-1.3-.09-.27.06-.56.33-.65.27-.09.56.06.65.33.15.43.53.72.97.77.44.05.86-.14.97-.56.12-.48-.28-.85-1.07-1.12-1.28-.43-1.78-.96-1.62-1.7.13-.57.65-1 1.28-1.13V12c0-.28.22-.5.5-.5s.5.22.5.5v.8c.67.14 1.2.55 1.45 1.13.11.26-.01.56-.27.67-.26.11-.56-.01-.67-.27-.16-.36-.48-.61-.88-.67-.44-.06-.85.16-.97.58-.12.44.25.79 1 .98 1.27.32 1.76.92 1.63 1.66z"/>
</svg>
